<?xml version="1.0" encoding="UTF-8" standalone="no"?>
<svg
   xmlns:dc="http://purl.org/dc/elements/1.1/"
   xmlns:cc="http://creativecommons.org/ns#"
   xmlns:rdf="http://www.w3.org/1999/02/22-rdf-syntax-ns#"
   xmlns:svg="http://www.w3.org/2000/svg"
   xmlns="http://www.w3.org/2000/svg"
   xmlns:sodipodi="http://sodipodi.sourceforge.net/DTD/sodipodi-0.dtd"
   xmlns:inkscape="http://www.inkscape.org/namespaces/inkscape"
   fill="none"
   stroke="currentColor"
   stroke-linecap="round"
   stroke-linejoin="round"
   stroke-width="2"
   class="feather feather-upload-cloud"
   viewBox="0 0 24 24"
   xml:space="preserve"
   width="100%"
   height="100%"
   version="1.1"
   id="svg8"
   sodipodi:docname="logo.svg"
   inkscape:version="0.92.5 (2060ec1f9f, 2020-04-08)"><metadata
     id="metadata14"><rdf:RDF><cc:Work
         rdf:about=""><dc:format>image/svg+xml</dc:format><dc:type
           rdf:resource="http://purl.org/dc/dcmitype/StillImage" /><dc:title></dc:title></cc:Work></rdf:RDF></metadata><defs
     id="defs12" /><sodipodi:namedview
     pagecolor="#ffffff"
     bordercolor="#666666"
     borderopacity="1"
     objecttolerance="10"
     gridtolerance="10"
     guidetolerance="10"
     inkscape:pageopacity="0"
     inkscape:pageshadow="2"
     inkscape:window-width="1920"
     inkscape:window-height="985"
     id="namedview10"
     showgrid="false"
     inkscape:zoom="19.666667"
     inkscape:cx="16.115606"
     inkscape:cy="12.495473"
     inkscape:window-x="0"
     inkscape:window-y="0"
     inkscape:window-maximized="1"
     inkscape:current-layer="svg8" /><path
     style="color:#000000;font-style:normal;font-variant:normal;font-weight:normal;font-stretch:normal;font-size:medium;line-height:normal;font-family:sans-serif;font-variant-ligatures:normal;font-variant-position:normal;font-variant-caps:normal;font-variant-numeric:normal;font-variant-alternates:normal;font-feature-settings:normal;text-indent:0;text-align:start;text-decoration:none;text-decoration-line:none;text-decoration-style:solid;text-decoration-color:#000000;letter-spacing:normal;word-spacing:normal;text-transform:none;writing-mode:lr-tb;direction:ltr;text-orientation:mixed;dominant-baseline:auto;baseline-shift:baseline;text-anchor:start;white-space:normal;shape-padding:0;clip-rule:nonzero;display:inline;overflow:visible;visibility:visible;opacity:1;isolation:auto;mix-blend-mode:normal;color-interpolation:sRGB;color-interpolation-filters:linearRGB;solid-color:#000000;solid-opacity:1;vector-effect:none;fill:#045afa;fill-opacity:1;fill-rule:nonzero;stroke:none;stroke-width:2;stroke-linecap:butt;stroke-linejoin:miter;stroke-miterlimit:4;stroke-dasharray:none;stroke-dashoffset:0;stroke-opacity:1;color-rendering:auto;image-rendering:auto;shape-rendering:auto;text-rendering:auto;enable-background:accumulate"
     d="M 8.7480469 2.0078125 C 7.4086957 2.0397724 6.0511059 2.3748303 4.7714844 3.0546875 C -0.34700194 5.7741162 -1.5881169 12.619699 2.25 16.962891 A 1.0004444 1.0004444 0 1 0 3.75 15.638672 C 0.73719653 12.229401 1.6930844 6.9549797 5.7109375 4.8203125 C 9.7287906 2.6856453 14.632652 4.8450963 15.771484 9.25 A 1.0001 1.0001 0 0 0 16.740234 10 L 18 10 C 20.144893 10.0014 21.452657 11.362014 21.873047 13.013672 C 22.293437 14.66533 21.795327 16.485044 19.912109 17.511719 A 1.0001 1.0001 0 1 0 20.869141 19.267578 C 23.532957 17.815343 24.427202 14.942291 23.810547 12.519531 C 23.193891 10.096772 21.033958 8.0020031 18 8 L 17.314453 8 C 15.958763 4.2874947 12.49015 1.9185175 8.7480469 2.0078125 z M 11.984375 10.986328 A 1.0001 1.0001 0 0 0 11.207031 11.376953 A 1.0001 1.0001 0 0 0 11.203125 11.382812 L 7.2929688 15.292969 A 1.0001 1.0001 0 0 0 7.4394531 16.853516 A 1.0001 1.0001 0 0 0 7.4414062 16.853516 A 1.0001 1.0001 0 0 0 8.7070312 16.707031 L 11 14.414062 L 11 21 A 1.0001 1.0001 0 1 0 13 21 L 13 14.414062 L 15.292969 16.707031 A 1.0001 1.0001 0 1 0 16.707031 15.292969 L 12.794922 11.380859 A 1.0001 1.0001 0 0 0 11.984375 10.986328 z "
     id="path2" /></svg>